<svg width="77" height="77" fill="none" xmlns="http://www.w3.org/2000/svg"><rect x=".814" y=".654" width="75.635" height="75.635" rx="37.79" fill="#FFBA49"/><path fill-rule="evenodd" clip-rule="evenodd" d="M28.014 28.616h25.058a1.84 1.84 0 011.717 2.48l-5.5 14.668a1.838 1.838 0 01-1.718 1.188H32.902a1.835 1.835 0 01-1.692-1.128L22.513 24.95h-4.28v-3.667h4.278a3.658 3.658 0 013.387 2.255l2.116 5.08zM42.07 39.618h3.667V35.95H42.07v-3.667h-3.667v3.667h-3.667v3.668h3.667v3.667h3.667v-3.667zm-8.251 14.668a2.75 2.75 0 100-5.5 2.75 2.75 0 000 5.5zm12.835 0a2.75 2.75 0 100-5.5 2.75 2.75 0 000 5.5z" fill="#fff"/></svg>