<svg width="148" height="55" fill="none" xmlns="http://www.w3.org/2000/svg"><rect x=".062" y=".255" width="147.145" height="54.536" rx="27.268" fill="#70C217"/><path d="M50.137 23.046c-.31-1.546-1.586-3.557-4.911-3.557-2.591 0-4.776 1.856-4.776 4.292 0 2.069 1.411 3.48 3.596 3.925l1.914.387c1.064.212 1.663.831 1.663 1.624 0 .967-.793 1.682-2.223 1.682-1.934 0-2.881-1.218-2.997-2.572l-2.475.658c.213 1.953 1.817 4.292 5.452 4.292 3.19 0 4.95-2.127 4.95-4.234 0-1.934-1.334-3.558-3.828-4.041l-1.914-.367c-1.006-.194-1.49-.793-1.49-1.547 0-.909.852-1.74 2.147-1.74 1.74 0 2.359 1.18 2.494 1.933l2.398-.735zm19.215 10.441h2.9l-5.22-13.708h-3.094L58.68 33.487h2.823l1.141-3.132h5.568l1.141 3.132zm-3.925-10.75l1.895 5.182h-3.79l1.895-5.182zm25.09 10.75v-2.552h-6.11V19.779H81.74v13.708h8.778zm18.36 0v-2.513h-5.917v-3.171h5.356v-2.378h-5.356v-3.133h5.917V19.78h-8.585v13.708h8.585z" fill="#fff"/></svg>