<svg width="750" height="330" fill="none" xmlns="http://www.w3.org/2000/svg"><path opacity=".05" fill-rule="evenodd" clip-rule="evenodd" d="M5.71 24.905c4.746-6.452 11.867-9.849 21.36-10.528 17.294-1.358 27.127 6.792 29.5 24.452 10.512 70.979 22.04 131.09 34.247 180.333l74.257-141.617c6.782-12.906 15.258-19.698 25.431-20.377 14.919-1.019 24.074 8.49 27.804 28.527 8.477 45.168 19.327 83.544 32.212 116.147 8.816-86.261 23.735-148.41 44.758-186.786C300.365 5.547 307.824.793 317.658.114c7.798-.68 14.919 1.698 21.361 6.792 6.443 5.094 9.833 11.547 10.512 19.358.339 6.113-.679 11.207-3.391 16.3-13.224 24.453-24.075 65.546-32.89 122.6-8.477 55.357-11.529 98.487-9.495 129.391.679 8.491-.678 15.962-4.068 22.415-4.069 7.471-10.173 11.546-17.971 12.226-8.816.679-17.971-3.397-26.787-12.566-31.534-32.263-56.626-80.487-74.936-144.674-22.039 43.47-38.315 76.073-48.826 97.808-20.006 38.376-36.96 58.073-51.2 59.092-9.156.679-16.954-7.132-23.736-23.433C38.938 260.934 20.29 175.013.284 47.659c-1.017-8.83.678-16.64 5.425-22.754zm728.002 53.228c-12.216-21.455-30.202-34.396-54.295-39.504-6.447-1.362-12.556-2.044-18.325-2.044-32.576 0-59.045 17.028-79.745 51.084-17.646 28.947-26.469 60.959-26.469 96.036 0 26.223 5.43 48.7 16.289 67.43 12.216 21.455 30.201 34.396 54.294 39.505 6.448 1.362 12.556 2.043 18.325 2.043 32.916 0 59.385-17.028 79.746-51.083C741.177 212.312 750 180.3 750 145.222c0-26.563-5.429-48.699-16.288-67.089zm-42.757 94.334c-4.751 22.477-13.235 39.164-25.79 50.402-9.841 8.855-19.004 12.601-27.487 10.898-8.144-1.703-14.931-8.855-20.021-22.136-4.072-10.557-6.108-21.115-6.108-30.991 0-8.514.678-17.028 2.375-24.86 3.054-13.963 8.823-27.585 17.985-40.526 11.198-16.688 23.075-23.499 35.292-21.115 8.144 1.703 14.931 8.855 20.021 22.136 4.072 10.557 6.108 21.115 6.108 30.991 0 8.854-1.018 17.368-2.375 25.201zM468.035 38.629c23.754 5.108 42.078 18.05 54.295 39.504 10.859 18.39 16.288 40.526 16.288 67.089 0 35.078-8.823 67.09-26.469 96.378-20.36 34.055-46.829 51.083-79.745 51.083-5.769 0-11.877-.681-18.325-2.043-24.093-5.109-42.078-18.05-54.294-39.505-10.859-18.73-16.289-41.207-16.289-67.43 0-35.077 8.823-67.089 26.469-96.036 20.7-34.056 47.168-51.084 79.745-51.084 5.769 0 11.877.681 18.325 2.044zm-14.253 184.24c12.556-11.238 21.04-27.925 25.79-50.402 1.697-7.833 2.376-16.347 2.376-25.201 0-9.876-2.036-20.434-6.108-30.991-5.09-13.281-11.877-20.433-20.021-22.136-12.217-2.384-24.094 4.427-35.292 21.115-9.162 12.941-14.931 26.563-17.985 40.526-1.697 7.832-2.376 16.346-2.376 24.86 0 9.876 2.036 20.434 6.108 30.991 5.091 13.281 11.878 20.433 20.022 22.136 8.483 1.703 17.645-2.043 27.486-10.898z" fill="#fff"/></svg>