<svg width="251" height="553" fill="none" xmlns="http://www.w3.org/2000/svg"><circle cx="4.484" cy="4.126" r="4.126" fill="#29AAF3"/><circle cx="64.991" cy="4.126" r="4.126" fill="#29AAF3"/><circle cx="125.5" cy="4.126" r="4.126" fill="#29AAF3"/><circle cx="186.008" cy="4.126" r="4.126" fill="#29AAF3"/><circle cx="246.516" cy="4.126" r="4.126" fill="#29AAF3"/><circle cx="4.483" cy="64.634" r="4.126" fill="#29AAF3"/><circle cx="64.991" cy="64.634" r="4.126" fill="#29AAF3"/><circle cx="125.5" cy="64.634" r="4.126" fill="#29AAF3"/><circle cx="186.008" cy="64.634" r="4.126" fill="#29AAF3"/><circle cx="246.516" cy="64.634" r="4.126" fill="#29AAF3"/><circle cx="4.483" cy="125.142" r="4.126" fill="#29AAF3"/><circle cx="64.991" cy="125.142" r="4.126" fill="#29AAF3"/><circle cx="125.5" cy="125.142" r="4.126" fill="#29AAF3"/><circle cx="186.008" cy="125.142" r="4.126" fill="#29AAF3"/><circle cx="246.516" cy="125.142" r="4.126" fill="#29AAF3"/><circle cx="4.483" cy="185.65" r="4.126" fill="#29AAF3"/><circle cx="64.991" cy="185.65" r="4.126" fill="#29AAF3"/><circle cx="125.5" cy="185.65" r="4.126" fill="#29AAF3"/><circle cx="186.008" cy="185.65" r="4.126" fill="#29AAF3"/><circle cx="246.516" cy="185.65" r="4.126" fill="#29AAF3"/><circle cx="4.483" cy="246.158" r="4.126" fill="#29AAF3"/><circle cx="64.991" cy="246.158" r="4.126" fill="#29AAF3"/><circle cx="125.5" cy="246.158" r="4.126" fill="#29AAF3"/><circle cx="186.008" cy="246.158" r="4.126" fill="#29AAF3"/><circle cx="246.516" cy="246.158" r="4.126" fill="#29AAF3"/><circle cx="4.483" cy="306.667" r="4.126" fill="#29AAF3"/><circle cx="64.991" cy="306.667" r="4.126" fill="#29AAF3"/><circle cx="125.5" cy="306.667" r="4.126" fill="#29AAF3"/><circle cx="186.008" cy="306.667" r="4.126" fill="#29AAF3"/><circle cx="246.516" cy="306.667" r="4.126" fill="#29AAF3"/><circle cx="4.483" cy="367.175" r="4.126" fill="#29AAF3"/><circle cx="64.991" cy="367.175" r="4.126" fill="#29AAF3"/><circle cx="125.5" cy="367.175" r="4.126" fill="#29AAF3"/><circle cx="186.008" cy="367.175" r="4.126" fill="#29AAF3"/><circle cx="246.516" cy="367.175" r="4.126" fill="#29AAF3"/><circle cx="4.483" cy="427.683" r="4.126" fill="#29AAF3"/><circle cx="64.991" cy="427.683" r="4.126" fill="#29AAF3"/><circle cx="125.5" cy="427.683" r="4.126" fill="#29AAF3"/><circle cx="186.008" cy="427.683" r="4.126" fill="#29AAF3"/><circle cx="246.516" cy="427.683" r="4.126" fill="#29AAF3"/><circle cx="4.483" cy="488.191" r="4.126" fill="#29AAF3"/><circle cx="64.991" cy="488.191" r="4.126" fill="#29AAF3"/><circle cx="125.5" cy="488.191" r="4.126" fill="#29AAF3"/><circle cx="186.008" cy="488.191" r="4.126" fill="#29AAF3"/><circle cx="246.516" cy="488.191" r="4.126" fill="#29AAF3"/><circle cx="4.483" cy="548.699" r="4.126" fill="#29AAF3"/><circle cx="64.991" cy="548.699" r="4.126" fill="#29AAF3"/><circle cx="125.5" cy="548.699" r="4.126" fill="#29AAF3"/><circle cx="186.008" cy="548.699" r="4.126" fill="#29AAF3"/><circle cx="246.516" cy="548.699" r="4.126" fill="#29AAF3"/></svg>