<svg width="214" height="473" fill="none" xmlns="http://www.w3.org/2000/svg"><circle cx="210.24" cy="468.636" r="3.524" transform="rotate(-180 210.24 468.636)" fill="#70C217"/><circle cx="158.561" cy="468.636" r="3.524" transform="rotate(-180 158.561 468.636)" fill="#70C217"/><circle cx="106.882" cy="468.636" r="3.524" transform="rotate(-180 106.882 468.636)" fill="#70C217"/><circle cx="55.203" cy="468.636" r="3.524" transform="rotate(-180 55.203 468.636)" fill="#70C217"/><circle cx="3.523" cy="468.636" r="3.524" transform="rotate(-180 3.523 468.636)" fill="#70C217"/><circle cx="210.24" cy="416.957" r="3.524" transform="rotate(-180 210.24 416.957)" fill="#70C217"/><circle cx="158.561" cy="416.957" r="3.524" transform="rotate(-180 158.561 416.957)" fill="#70C217"/><circle cx="106.882" cy="416.957" r="3.524" transform="rotate(-180 106.882 416.957)" fill="#70C217"/><circle cx="55.203" cy="416.957" r="3.524" transform="rotate(-180 55.203 416.957)" fill="#70C217"/><circle cx="3.523" cy="416.957" r="3.524" transform="rotate(-180 3.523 416.957)" fill="#70C217"/><circle cx="210.24" cy="365.278" r="3.524" transform="rotate(-180 210.24 365.278)" fill="#70C217"/><circle cx="158.561" cy="365.278" r="3.524" transform="rotate(-180 158.561 365.278)" fill="#70C217"/><circle cx="106.882" cy="365.278" r="3.524" transform="rotate(-180 106.882 365.278)" fill="#70C217"/><circle cx="55.203" cy="365.278" r="3.524" transform="rotate(-180 55.203 365.278)" fill="#70C217"/><circle cx="3.523" cy="365.278" r="3.524" transform="rotate(-180 3.523 365.278)" fill="#70C217"/><circle cx="210.24" cy="313.599" r="3.524" transform="rotate(-180 210.24 313.599)" fill="#70C217"/><circle cx="158.561" cy="313.599" r="3.524" transform="rotate(-180 158.561 313.599)" fill="#70C217"/><circle cx="106.882" cy="313.599" r="3.524" transform="rotate(-180 106.882 313.599)" fill="#70C217"/><circle cx="55.203" cy="313.599" r="3.524" transform="rotate(-180 55.203 313.599)" fill="#70C217"/><circle cx="3.523" cy="313.599" r="3.524" transform="rotate(-180 3.523 313.599)" fill="#70C217"/><circle cx="210.24" cy="261.92" r="3.524" transform="rotate(-180 210.24 261.92)" fill="#70C217"/><circle cx="158.561" cy="261.92" r="3.524" transform="rotate(-180 158.561 261.92)" fill="#70C217"/><circle cx="106.882" cy="261.92" r="3.524" transform="rotate(-180 106.882 261.92)" fill="#70C217"/><circle cx="55.203" cy="261.92" r="3.524" transform="rotate(-180 55.203 261.92)" fill="#70C217"/><circle cx="3.523" cy="261.92" r="3.524" transform="rotate(-180 3.523 261.92)" fill="#70C217"/><circle cx="210.24" cy="210.24" r="3.524" transform="rotate(-180 210.24 210.24)" fill="#70C217"/><circle cx="158.561" cy="210.24" r="3.524" transform="rotate(-180 158.561 210.24)" fill="#70C217"/><circle cx="106.882" cy="210.24" r="3.524" transform="rotate(-180 106.882 210.24)" fill="#70C217"/><circle cx="55.203" cy="210.24" r="3.524" transform="rotate(-180 55.203 210.24)" fill="#70C217"/><circle cx="3.523" cy="210.24" r="3.524" transform="rotate(-180 3.523 210.24)" fill="#70C217"/><circle cx="210.24" cy="158.561" r="3.524" transform="rotate(-180 210.24 158.561)" fill="#70C217"/><circle cx="158.561" cy="158.561" r="3.524" transform="rotate(-180 158.561 158.561)" fill="#70C217"/><circle cx="106.882" cy="158.561" r="3.524" transform="rotate(-180 106.882 158.561)" fill="#70C217"/><circle cx="55.203" cy="158.561" r="3.524" transform="rotate(-180 55.203 158.561)" fill="#70C217"/><circle cx="3.523" cy="158.561" r="3.524" transform="rotate(-180 3.523 158.561)" fill="#70C217"/><circle cx="210.24" cy="106.882" r="3.524" transform="rotate(-180 210.24 106.882)" fill="#70C217"/><circle cx="158.561" cy="106.882" r="3.524" transform="rotate(-180 158.561 106.882)" fill="#70C217"/><circle cx="106.882" cy="106.882" r="3.524" transform="rotate(-180 106.882 106.882)" fill="#70C217"/><circle cx="55.203" cy="106.882" r="3.524" transform="rotate(-180 55.203 106.882)" fill="#70C217"/><circle cx="3.523" cy="106.882" r="3.524" transform="rotate(-180 3.523 106.882)" fill="#70C217"/><circle cx="210.24" cy="55.203" r="3.524" transform="rotate(-180 210.24 55.203)" fill="#70C217"/><circle cx="158.561" cy="55.203" r="3.524" transform="rotate(-180 158.561 55.203)" fill="#70C217"/><circle cx="106.882" cy="55.203" r="3.524" transform="rotate(-180 106.882 55.203)" fill="#70C217"/><circle cx="55.203" cy="55.203" r="3.524" transform="rotate(-180 55.203 55.203)" fill="#70C217"/><circle cx="3.523" cy="55.203" r="3.524" transform="rotate(-180 3.523 55.203)" fill="#70C217"/><circle cx="210.24" cy="3.524" r="3.524" transform="rotate(-180 210.24 3.524)" fill="#70C217"/><circle cx="158.561" cy="3.524" r="3.524" transform="rotate(-180 158.561 3.524)" fill="#70C217"/><circle cx="106.882" cy="3.524" r="3.524" transform="rotate(-180 106.882 3.524)" fill="#70C217"/><circle cx="55.203" cy="3.524" r="3.524" transform="rotate(-180 55.203 3.524)" fill="#70C217"/><circle cx="3.523" cy="3.524" r="3.524" transform="rotate(-180 3.523 3.524)" fill="#70C217"/></svg>