<svg width="232" height="554" fill="none" xmlns="http://www.w3.org/2000/svg"><circle cx="4.453" cy="4.445" r="4.126" fill="#7854F7"/><circle cx="64.96" cy="4.444" r="4.126" fill="#7854F7"/><circle cx="125.469" cy="4.444" r="4.126" fill="#7854F7"/><circle cx="185.977" cy="4.444" r="4.126" fill="#7854F7"/><circle cx="4.453" cy="64.953" r="4.126" fill="#7854F7"/><circle cx="64.96" cy="64.953" r="4.126" fill="#7854F7"/><circle cx="125.469" cy="64.953" r="4.126" fill="#7854F7"/><circle cx="185.977" cy="64.953" r="4.126" fill="#7854F7"/><circle cx="4.453" cy="125.461" r="4.126" fill="#7854F7"/><circle cx="64.96" cy="125.461" r="4.126" fill="#7854F7"/><circle cx="125.469" cy="125.461" r="4.126" fill="#7854F7"/><circle cx="185.977" cy="125.461" r="4.126" fill="#7854F7"/><circle cx="4.453" cy="185.969" r="4.126" fill="#7854F7"/><circle cx="64.96" cy="185.969" r="4.126" fill="#7854F7"/><circle cx="125.469" cy="185.969" r="4.126" fill="#7854F7"/><circle cx="185.977" cy="185.969" r="4.126" fill="#7854F7"/><circle cx="4.453" cy="246.477" r="4.126" fill="#7854F7"/><circle cx="64.96" cy="246.477" r="4.126" fill="#7854F7"/><circle cx="125.469" cy="246.477" r="4.126" fill="#7854F7"/><circle cx="185.977" cy="246.477" r="4.126" fill="#7854F7"/><circle cx="4.453" cy="306.985" r="4.126" fill="#7854F7"/><circle cx="64.96" cy="306.985" r="4.126" fill="#7854F7"/><circle cx="125.469" cy="306.985" r="4.126" fill="#7854F7"/><circle cx="185.977" cy="306.985" r="4.126" fill="#7854F7"/><circle cx="4.453" cy="367.494" r="4.126" fill="#7854F7"/><circle cx="64.96" cy="367.494" r="4.126" fill="#7854F7"/><circle cx="125.469" cy="367.494" r="4.126" fill="#7854F7"/><circle cx="185.977" cy="367.494" r="4.126" fill="#7854F7"/><circle cx="4.453" cy="428.002" r="4.126" fill="#7854F7"/><circle cx="64.96" cy="428.002" r="4.126" fill="#7854F7"/><circle cx="125.469" cy="428.002" r="4.126" fill="#7854F7"/><circle cx="185.977" cy="428.002" r="4.126" fill="#7854F7"/><circle cx="4.453" cy="488.51" r="4.126" fill="#7854F7"/><circle cx="64.96" cy="488.51" r="4.126" fill="#7854F7"/><circle cx="125.469" cy="488.51" r="4.126" fill="#7854F7"/><circle cx="185.977" cy="488.51" r="4.126" fill="#7854F7"/><circle cx="4.453" cy="549.018" r="4.126" fill="#7854F7"/><circle cx="64.96" cy="549.018" r="4.126" fill="#7854F7"/><circle cx="125.469" cy="549.018" r="4.126" fill="#7854F7"/><circle cx="185.977" cy="549.018" r="4.126" fill="#7854F7"/></svg>