<svg width="184" height="37" fill="none" xmlns="http://www.w3.org/2000/svg"><path fill-rule="evenodd" clip-rule="evenodd" d="M56.364 0H5.77C2.567 0-.025 2.617 0 5.794v19.313a5.791 5.791 0 005.794 5.794h23.964L40.71 37l-2.49-6.099h18.144a5.791 5.791 0 005.794-5.794V5.794A5.791 5.791 0 0056.364 0zM4.701 4.472c-.711.051-1.245.305-1.6.788-.356.458-.483 1.042-.407 1.703 1.5 9.53 2.897 15.959 4.193 19.288.508 1.22 1.093 1.804 1.779 1.753 1.067-.076 2.338-1.55 3.837-4.422a476.164 476.164 0 013.66-7.318c1.372 4.803 3.252 8.411 5.615 10.825.661.686 1.347.991 2.008.94.584-.05 1.042-.355 1.347-.914.254-.483.355-1.042.305-1.678-.153-2.312.076-5.54.711-9.682.661-4.269 1.474-7.344 2.465-9.173.203-.382.28-.763.254-1.22a1.99 1.99 0 00-.787-1.449c-.483-.38-1.017-.559-1.601-.508-.737.05-1.296.407-1.678 1.118-1.575 2.872-2.693 7.522-3.354 13.977-.966-2.44-1.779-5.311-2.414-8.691-.28-1.5-.966-2.21-2.084-2.135-.762.051-1.398.56-1.906 1.525L9.48 19.796C8.564 16.11 7.7 11.613 6.912 6.302c-.178-1.321-.915-1.931-2.21-1.83zm48.97 1.83c1.803.381 3.15 1.347 4.065 2.948.813 1.372 1.22 3.024 1.22 5.006 0 2.617-.66 5.006-1.982 7.192-1.525 2.54-3.507 3.811-5.972 3.811-.432 0-.89-.05-1.372-.152-1.805-.381-3.152-1.347-4.066-2.948-.814-1.397-1.22-3.075-1.22-5.031 0-2.618.66-5.007 1.982-7.167 1.55-2.54 3.532-3.811 5.972-3.811.432 0 .89.05 1.372.152zM52.602 20.05c.94-.838 1.575-2.084 1.931-3.76.102-.585.178-1.22.178-1.881a6.45 6.45 0 00-.457-2.313c-.382-.991-.89-1.525-1.5-1.652-.915-.178-1.804.33-2.643 1.576a8.217 8.217 0 00-1.346 3.024 8.834 8.834 0 00-.178 1.855c0 .737.152 1.525.457 2.312.381.992.89 1.525 1.5 1.652.635.127 1.32-.152 2.058-.813zm-10.8-10.8c-.915-1.601-2.287-2.567-4.066-2.948a6.67 6.67 0 00-1.372-.152c-2.44 0-4.422 1.27-5.972 3.811-1.321 2.16-1.982 4.55-1.982 7.167 0 1.956.406 3.634 1.22 5.031.915 1.601 2.261 2.567 4.066 2.948.482.102.94.152 1.372.152 2.465 0 4.447-1.27 5.972-3.811 1.321-2.186 1.982-4.575 1.982-7.192 0-1.982-.407-3.634-1.22-5.006zM38.6 16.29c-.356 1.676-.99 2.922-1.931 3.76-.737.66-1.423.94-2.059.813-.61-.127-1.118-.66-1.499-1.652a6.448 6.448 0 01-.457-2.312c0-.635.05-1.27.178-1.855a8.22 8.22 0 011.346-3.024c.84-1.245 1.728-1.754 2.643-1.576.61.127 1.118.661 1.5 1.652a6.45 6.45 0 01.457 2.313c0 .66-.05 1.296-.178 1.88z" fill="#fff"/><path d="M68.588 9.021c-1.703 1.678-2.542 3.812-2.542 6.404 0 2.77.839 5.032 2.516 6.735 1.677 1.702 3.863 2.566 6.582 2.566.788 0 1.677-.127 2.643-.406v-4.117c-.89.254-1.652.38-2.313.38-1.347 0-2.414-.456-3.227-1.346-.813-.915-1.22-2.134-1.22-3.685 0-1.448.407-2.643 1.195-3.557.813-.94 1.804-1.398 3.024-1.398.787 0 1.626.127 2.54.381V6.861c-.838-.228-1.778-.33-2.77-.33-2.591-.025-4.726.813-6.428 2.49zm17.636-2.515c-2.338 0-4.168.787-5.49 2.338-1.32 1.55-1.956 3.735-1.956 6.53 0 3.024.66 5.337 1.957 6.938 1.296 1.6 3.201 2.414 5.692 2.414 2.414 0 4.27-.813 5.565-2.414 1.296-1.601 1.957-3.863 1.957-6.76s-.66-5.133-1.982-6.708c-1.347-1.55-3.253-2.338-5.743-2.338zM88.23 19.72c-.457.711-1.143 1.067-2.007 1.067-.814 0-1.424-.356-1.856-1.067-.431-.712-.635-2.135-.635-4.295 0-3.329.839-4.98 2.541-4.98 1.78 0 2.694 1.677 2.694 5.056-.025 2.084-.28 3.507-.737 4.219zm18.271-12.732l-.914 3.888a89.721 89.721 0 00-.661 3.05l-.508 2.694c-.483-2.694-1.144-5.896-1.983-9.632H96.54l-2.21 17.306h4.422l1.194-11.918 3.024 11.918h3.151l2.897-11.893 1.245 11.893h4.625l-2.337-17.306h-6.049zm21.169 0l-.915 3.888a89.721 89.721 0 00-.661 3.05l-.508 2.694c-.483-2.694-1.144-5.896-1.982-9.632h-5.896l-2.211 17.306h4.422l1.194-11.918 3.024 11.918h3.152l2.871-11.893 1.245 11.893h4.625l-2.338-17.306h-6.022zm14.383 10.47h4.142v-3.583h-4.142V10.7h4.777V7.014h-9.453V24.32h9.479v-3.685h-4.803v-3.177zm17.966-2.744c.483-.788.737-1.601.737-2.44 0-1.626-.635-2.922-1.906-3.862-1.27-.94-3.024-1.424-5.209-1.424h-5.438v17.306h4.676v-7.878h.076l3.786 7.878h4.93l-3.735-7.801c.889-.407 1.6-.991 2.083-1.78zm-7.166-.28v-4.117c1.118.026 1.906.204 2.389.56.483.355.711.914.711 1.727 0 1.195-1.042 1.805-3.1 1.83zm10.648-5.413c-1.703 1.678-2.541 3.812-2.541 6.404 0 2.77.838 5.032 2.515 6.735 1.678 1.702 3.863 2.566 6.582 2.566.788 0 1.677-.127 2.643-.406v-4.117c-.889.254-1.652.38-2.313.38-1.346 0-2.414-.456-3.227-1.346-.813-.915-1.22-2.134-1.22-3.685 0-1.448.407-2.643 1.195-3.557.813-.94 1.804-1.398 3.024-1.398.787 0 1.626.127 2.541.381V6.861c-.839-.228-1.779-.33-2.77-.33-2.567-.025-4.727.813-6.429 2.49zm15.171 11.563v-3.151h4.142V13.85h-4.142v-3.177h4.803V6.988h-9.454v17.306h9.479V20.61h-4.828v-.025z" fill="#fff"/></svg>